<svg width="24" height="24" viewBox="0 0 24 24" fill="none" xmlns="http://www.w3.org/2000/svg">
<path d="M19.0554 3.4172C19.7228 3.69376 20.3292 4.09912 20.84 4.61012C21.351 5.12087 21.7563 5.7273 22.0329 6.39476C22.3095 7.06222 22.4518 7.77763 22.4518 8.50012C22.4518 9.2226 22.3095 9.93801 22.0329 10.6055C21.7563 11.2729 21.351 11.8794 20.84 12.3901L19.78 13.4501L12 21.2301L4.22 13.4501L3.16 12.3901C2.1283 11.3584 1.54871 9.95915 1.54871 8.50012C1.54871 7.04108 2.1283 5.64181 3.16 4.61012C4.19169 3.57842 5.59096 2.99883 7.05 2.99883C8.50903 2.99883 9.9083 3.57842 10.94 4.61012L12 5.67012L13.06 4.61012C13.5708 4.09912 14.1772 3.69376 14.8446 3.4172C15.5121 3.14064 16.2275 2.99829 16.95 2.99829C17.6725 2.99829 18.3879 3.14064 19.0554 3.4172Z" stroke="#F2A819" stroke-width="2" stroke-linecap="round" stroke-linejoin="round"/>
</svg>
