<svg width="55" height="55" viewBox="0 0 55 55" fill="none" xmlns="http://www.w3.org/2000/svg">
<path d="M50.4166 16.0418C50.4166 9.71357 45.2866 4.5835 38.9583 4.5835H27.5H16.0416C9.71338 4.5835 4.58331 9.71357 4.58331 16.0418V38.9585C4.58331 45.2868 9.71338 50.4168 16.0416 50.4168H38.9583C45.2866 50.4168 50.4166 45.2868 50.4166 38.9585V16.0418Z" stroke="white" stroke-width="2" stroke-linecap="round" stroke-linejoin="round"/>
<path d="M35.7357 31.6229C36.6237 29.9115 36.9495 27.9637 36.6667 26.0565C36.3782 24.111 35.4717 22.3099 34.081 20.9192C32.6903 19.5286 30.8892 18.622 28.9438 18.3335C27.0365 18.0507 25.0887 18.3765 23.3773 19.2645C21.6659 20.1525 20.278 21.5576 19.4112 23.2798C18.5443 25.002 18.2426 26.9538 18.5489 28.8574C18.8552 30.761 19.754 32.5195 21.1174 33.8829C22.4807 35.2462 24.2393 36.145 26.1429 36.4513C28.0465 36.7576 29.9982 36.4559 31.7204 35.589C33.4426 34.7222 34.8477 33.3344 35.7357 31.6229Z" stroke="white" stroke-width="2" stroke-linecap="round" stroke-linejoin="round"/>
<path d="M40.1042 14.896H40.1271" stroke="white" stroke-width="2" stroke-linecap="round" stroke-linejoin="round"/>
</svg>
