<svg width="111" height="44" viewBox="0 0 111 44" fill="none" xmlns="http://www.w3.org/2000/svg">
<rect width="111" height="44" fill="black" fill-opacity="0.9"/>
<path d="M23.6855 31.2031V35H10.8184V31.2031H23.6855ZM12.2773 9.40625V35H7.44336V9.40625H12.2773ZM37.4492 13.291L30.1543 35H25.0391L34.6016 9.40625H37.8711L37.4492 13.291ZM43.5488 35L36.2188 13.291L35.7793 9.40625H39.0664L48.6816 35H43.5488ZM43.2148 25.4902V29.3047H29.4863V25.4902H43.2148ZM61.1621 25.666H54.5703V21.8691H61.1621C62.2402 21.8691 63.1133 21.6934 63.7812 21.3418C64.4609 20.9785 64.959 20.4863 65.2754 19.8652C65.5918 19.2324 65.75 18.5117 65.75 17.7031C65.75 16.918 65.5918 16.1855 65.2754 15.5059C64.959 14.8262 64.4609 14.2754 63.7812 13.8535C63.1133 13.4316 62.2402 13.2207 61.1621 13.2207H56.1523V35H51.3184V9.40625H61.1621C63.1543 9.40625 64.8535 9.76367 66.2598 10.4785C67.6777 11.1816 68.7559 12.1602 69.4941 13.4141C70.2441 14.6563 70.6191 16.0742 70.6191 17.668C70.6191 19.3203 70.2441 20.7441 69.4941 21.9395C68.7559 23.1348 67.6777 24.0547 66.2598 24.6992C64.8535 25.3438 63.1543 25.666 61.1621 25.666ZM79.5664 9.40625V35H74.7324V9.40625H79.5664ZM98.1816 28.3555C98.1816 27.8633 98.1055 27.4238 97.9531 27.0371C97.8125 26.6387 97.5488 26.2812 97.1621 25.9648C96.7871 25.6367 96.2539 25.3203 95.5625 25.0156C94.8828 24.6992 94.0039 24.3711 92.9258 24.0312C91.7305 23.6562 90.6172 23.2344 89.5859 22.7656C88.5547 22.2969 87.6465 21.752 86.8613 21.1309C86.0879 20.5098 85.4844 19.7949 85.0508 18.9863C84.6172 18.166 84.4004 17.2168 84.4004 16.1387C84.4004 15.084 84.623 14.123 85.0684 13.2559C85.5254 12.3887 86.1699 11.6445 87.002 11.0234C87.834 10.3906 88.8125 9.9043 89.9375 9.56445C91.0742 9.22461 92.3281 9.05469 93.6992 9.05469C95.5977 9.05469 97.2383 9.40039 98.6211 10.0918C100.016 10.7832 101.094 11.7207 101.855 12.9043C102.617 14.0879 102.998 15.418 102.998 16.8945H98.1816C98.1816 16.0977 98.0117 15.3945 97.6719 14.7852C97.3438 14.1758 96.8398 13.6953 96.1602 13.3438C95.4922 12.9922 94.6484 12.8164 93.6289 12.8164C92.6445 12.8164 91.8242 12.9629 91.168 13.2559C90.5234 13.5488 90.0371 13.9473 89.709 14.4512C89.3926 14.9551 89.2344 15.5176 89.2344 16.1387C89.2344 16.6074 89.3457 17.0293 89.5684 17.4043C89.791 17.7676 90.125 18.1133 90.5703 18.4414C91.0156 18.7578 91.5664 19.0566 92.2227 19.3379C92.8906 19.6074 93.6641 19.877 94.543 20.1465C95.9492 20.5684 97.1797 21.0371 98.2344 21.5527C99.3008 22.0684 100.186 22.6543 100.889 23.3105C101.604 23.9668 102.137 24.7051 102.488 25.5254C102.852 26.3457 103.033 27.2773 103.033 28.3203C103.033 29.4219 102.816 30.4062 102.383 31.2734C101.949 32.1406 101.328 32.8789 100.52 33.4883C99.7109 34.0977 98.7383 34.5605 97.6016 34.877C96.4766 35.1934 95.2168 35.3516 93.8223 35.3516C92.5801 35.3516 91.3496 35.1875 90.1309 34.8594C88.9238 34.5195 87.8281 34.0156 86.8438 33.3477C85.8594 32.668 85.0742 31.8125 84.4883 30.7812C83.9023 29.7383 83.6094 28.5195 83.6094 27.125H88.4609C88.4609 27.9336 88.5898 28.625 88.8477 29.1992C89.1172 29.7617 89.4922 30.2246 89.9727 30.5879C90.4648 30.9395 91.0391 31.1973 91.6953 31.3613C92.3516 31.5254 93.0605 31.6074 93.8223 31.6074C94.8066 31.6074 95.6152 31.4727 96.248 31.2031C96.8926 30.9219 97.373 30.5352 97.6895 30.043C98.0176 29.5508 98.1816 28.9883 98.1816 28.3555Z" fill="#FF7F50"/>
<path d="M4 5H104" stroke="#FF7F50" stroke-width="3"/>
<path d="M5 39H105" stroke="#FF7F50" stroke-width="3"/>
</svg>
