<svg width="35" height="33" viewBox="0 0 35 33" fill="none" xmlns="http://www.w3.org/2000/svg">
<path d="M13.6651 9.9V6.6H23.4563V9.9H13.6651ZM10.4014 33C9.50385 33 8.73551 32.6769 8.09637 32.0306C7.45722 31.3844 7.13764 30.6075 7.13764 29.7C7.13764 28.7925 7.45722 28.0156 8.09637 27.3694C8.73551 26.7231 9.50385 26.4 10.4014 26.4C11.2989 26.4 12.0672 26.7231 12.7064 27.3694C13.3455 28.0156 13.6651 28.7925 13.6651 29.7C13.6651 30.6075 13.3455 31.3844 12.7064 32.0306C12.0672 32.6769 11.2989 33 10.4014 33ZM26.7201 33C25.8225 33 25.0542 32.6769 24.4151 32.0306C23.7759 31.3844 23.4563 30.6075 23.4563 29.7C23.4563 28.7925 23.7759 28.0156 24.4151 27.3694C25.0542 26.7231 25.8225 26.4 26.7201 26.4C27.6176 26.4 28.3859 26.7231 29.0251 27.3694C29.6642 28.0156 29.9838 28.7925 29.9838 29.7C29.9838 30.6075 29.6642 31.3844 29.0251 32.0306C28.3859 32.6769 27.6176 33 26.7201 33ZM0.610168 3.3V0H5.95454L12.89 14.85H24.3131L30.6773 3.3H34.3899L27.2096 16.4175C26.9105 16.9675 26.5093 17.3938 26.0061 17.6963C25.503 17.9988 24.9522 18.15 24.3539 18.15H12.1964L10.4014 21.45H29.9838V24.75H10.4014C9.17748 24.75 8.24595 24.2138 7.6068 23.1413C6.96766 22.0688 6.94726 20.9825 7.54561 19.8825L9.74863 15.84L3.87391 3.3H0.610168Z" fill="white"/>
</svg>
