<svg width="55" height="55" viewBox="0 0 55 55" fill="none" xmlns="http://www.w3.org/2000/svg">
<path d="M45.5125 10.3813C48.084 9.60701 50.5138 8.42306 52.7084 6.8751C51.9311 10.0667 50.2806 12.9789 47.9417 15.2855C48.0615 15.9125 48.1229 16.5493 48.125 17.1876C48.125 43.5418 22.9167 55.0001 2.29169 43.5418C7.99142 43.7685 13.6137 42.1621 18.3334 38.9584C-2.29165 29.7918 6.87502 9.16676 6.87502 9.16676C9.19033 12.4636 12.2851 15.1367 15.8836 16.948C19.4821 18.7593 23.4727 19.6524 27.5 19.548V17.2563C27.4718 15.1534 28.0902 13.0925 29.2714 11.3524C30.4527 9.61227 32.1399 8.27693 34.1048 7.52697C36.0697 6.777 38.2175 6.64859 40.2578 7.15909C42.2981 7.6696 44.1323 8.79439 45.5125 10.3813Z" stroke="white" stroke-width="2" stroke-linecap="round" stroke-linejoin="round"/>
</svg>
