<svg width="32" height="33" viewBox="0 0 32 33" fill="none" xmlns="http://www.w3.org/2000/svg">
<path d="M2 16.5C2 8.76801 8.26801 2.5 16 2.5C23.732 2.5 30 8.76801 30 16.5C30 24.232 23.732 30.5 16 30.5C8.26801 30.5 2 24.232 2 16.5Z" fill="#172A73"/>
<path d="M5.57446 10.2446V10.8404L7.7524 11.1833C9.29561 11.4262 10.5394 12.5862 10.8989 14.1178L13.4485 24.9775C13.5116 25.2463 13.7497 25.4361 14.0238 25.4361H17.6015C17.8375 25.4361 18.0509 25.2947 18.1444 25.0763L24.3159 10.6605C24.4001 10.4639 24.257 10.2446 24.0445 10.2446H20.7482C20.5101 10.2446 20.2953 10.3884 20.2031 10.6095L16.0689 20.5212L14.4197 11.701C14.2617 10.8564 13.5296 10.2446 12.6766 10.2446H5.57446Z" fill="white"/>
</svg>
