<svg width="41" height="15" viewBox="0 0 41 15" fill="none" xmlns="http://www.w3.org/2000/svg">
<path fill-rule="evenodd" clip-rule="evenodd" d="M10.3387 14.0911H6.82499L4.19016 3.72854C4.0651 3.25187 3.79956 2.83046 3.40896 2.63184C2.43418 2.13271 1.36003 1.73548 0.188232 1.53514V1.13618H5.84849C6.62969 1.13618 7.21558 1.73548 7.31323 2.4315L8.68033 9.90634L12.1923 1.13618H15.6083L10.3387 14.0911ZM17.5613 14.0911H14.2429L16.9754 1.13618H20.2938L17.5613 14.0911ZM24.587 4.72508C24.6846 4.02734 25.2705 3.62838 25.9541 3.62838C27.0282 3.52821 28.1983 3.72855 29.1748 4.22595L29.7607 1.4367C28.7842 1.03774 27.71 0.837402 26.7353 0.837402C23.5145 0.837402 21.1709 2.63185 21.1709 5.12231C21.1709 7.01693 22.831 8.01173 24.0028 8.61103C25.2705 9.2086 25.7588 9.60756 25.6611 10.2051C25.6611 11.1015 24.6846 11.5005 23.7098 11.5005C22.538 11.5005 21.3662 11.2017 20.2938 10.7025L19.7079 13.4935C20.8797 13.9909 22.1474 14.1913 23.3192 14.1913C26.9306 14.2897 29.1748 12.497 29.1748 9.80618C29.1748 6.41763 24.587 6.21901 24.587 4.72508ZM40.7882 14.0911L38.1534 1.13618H35.3233C34.7374 1.13618 34.1515 1.53514 33.9562 2.13271L29.0771 14.0911H32.4931L33.175 12.1982H37.3722L37.7628 14.0911H40.7882ZM35.8115 4.62492L36.7863 9.5074H34.0538L35.8115 4.62492Z" fill="#172B85"/>
</svg>
