<svg width="55" height="55" viewBox="0 0 55 55" fill="none" xmlns="http://www.w3.org/2000/svg">
<path d="M3.85774 17.0863C4.07866 13.6853 6.81303 11.0199 10.217 10.8512C15.1463 10.607 22.1916 10.3125 27.5 10.3125C32.8084 10.3125 39.8537 10.607 44.783 10.8512C48.187 11.0199 50.9213 13.6853 51.1423 17.0863C51.3539 20.3447 51.5625 24.3541 51.5625 27.5C51.5625 30.6459 51.3539 34.6553 51.1423 37.9137C50.9213 41.3147 48.187 43.9801 44.783 44.1488C39.8537 44.393 32.8084 44.6875 27.5 44.6875C22.1916 44.6875 15.1463 44.393 10.2171 44.1488C6.81304 43.9801 4.07866 41.3147 3.85774 37.9137C3.64609 34.6553 3.4375 30.6459 3.4375 27.5C3.4375 24.3541 3.64609 20.3447 3.85774 17.0863Z" fill="white"/>
<path d="M22.3438 20.625V34.375L36.0938 27.5L22.3438 20.625Z" fill="#C05F3C"/>
</svg>
